<svg width="25" height="24" viewBox="0 0 25 24" fill="none" xmlns="http://www.w3.org/2000/svg">
<mask id="mask0_2398_59289" style="mask-type:alpha" maskUnits="userSpaceOnUse" x="0" y="0" width="25" height="24">
<rect x="0.786453" width="24" height="24" fill="#D9D9D9"/>
</mask>
<g mask="url(#mask0_2398_59289)">
<path d="M16.1747 12.9647C16.0963 13.9059 15.7433 14.7096 15.1159 15.376C14.4884 16.043 13.7119 16.3765 12.7865 16.3765C12.661 16.3765 12.5317 16.3686 12.3987 16.3529C12.265 16.3373 12.1276 16.3137 11.9865 16.2824C11.8766 16.251 11.7631 16.251 11.6457 16.2824C11.5278 16.3137 11.4296 16.3765 11.3512 16.4706C11.2414 16.5961 11.2062 16.7489 11.2457 16.9289C11.2846 17.1096 11.3904 17.2314 11.5629 17.2941C11.7668 17.3725 11.9708 17.4275 12.1747 17.4588C12.3786 17.4902 12.5825 17.5059 12.7865 17.5059C14.0257 17.5059 15.0729 17.0629 15.9281 16.1769C16.7827 15.2904 17.2414 14.2118 17.3041 12.9412L17.7512 13.3647C17.8766 13.4588 18.0137 13.5059 18.1625 13.5059C18.3118 13.5059 18.4335 13.451 18.5276 13.3412C18.6531 13.2314 18.7159 13.1018 18.7159 12.9525C18.7159 12.8038 18.661 12.6667 18.5512 12.5412L17.3747 11.3882C17.2178 11.2314 17.0217 11.1529 16.7865 11.1529C16.5512 11.1529 16.3551 11.2314 16.1982 11.3882L15.0217 12.5412C14.9119 12.6667 14.857 12.8 14.857 12.9412C14.857 13.0824 14.9119 13.2157 15.0217 13.3412C15.1472 13.451 15.2806 13.5059 15.4217 13.5059C15.5629 13.5059 15.6963 13.451 15.8217 13.3412L16.1747 12.9647ZM8.26881 12.9412L7.82175 12.5176C7.69626 12.4235 7.55916 12.3765 7.41045 12.3765C7.26112 12.3765 7.13939 12.4314 7.04528 12.5412C6.91979 12.651 6.85704 12.7805 6.85704 12.9299C6.85704 13.0786 6.91194 13.2157 7.02175 13.3412L8.19822 14.4941C8.35508 14.651 8.55116 14.7294 8.78645 14.7294C9.02175 14.7294 9.21782 14.651 9.37469 14.4941L10.5512 13.3412C10.661 13.2157 10.7159 13.0824 10.7159 12.9412C10.7159 12.8 10.661 12.6667 10.5512 12.5412C10.4257 12.4314 10.2923 12.3765 10.1512 12.3765C10.01 12.3765 9.87665 12.4314 9.75116 12.5412L9.39822 12.9176C9.47665 11.9765 9.82959 11.1724 10.457 10.5054C11.0845 9.83906 11.861 9.50588 12.7865 9.50588C12.9119 9.50588 13.0415 9.51373 13.1752 9.52941C13.3082 9.5451 13.4374 9.56863 13.5629 9.6C13.6727 9.63137 13.7904 9.63137 13.9159 9.6C14.0414 9.56863 14.1433 9.50588 14.2217 9.41176C14.3315 9.28627 14.367 9.13318 14.3281 8.95247C14.2886 8.77239 14.1904 8.65098 14.0335 8.58824C13.8139 8.52549 13.6062 8.47435 13.4105 8.43482C13.2141 8.39592 13.0061 8.37647 12.7865 8.37647C11.5472 8.37647 10.5003 8.81945 9.64575 9.70541C8.79053 10.592 8.33155 11.6706 8.26881 12.9412ZM5.53939 20C5.06881 20 4.66881 19.8353 4.33939 19.5059C4.00998 19.1765 3.84528 18.7765 3.84528 18.3059V7.57647C3.84528 7.10588 4.00998 6.70588 4.33939 6.37647C4.66881 6.04706 5.06881 5.88235 5.53939 5.88235H8.40998L9.65704 4.54118C9.8139 4.36863 10.0021 4.23529 10.2217 4.14118C10.4414 4.04706 10.6688 4 10.9041 4H14.6688C14.9041 4 15.1316 4.04706 15.3512 4.14118C15.5708 4.23529 15.759 4.36863 15.9159 4.54118L17.1629 5.88235H20.0335C20.5041 5.88235 20.9041 6.04706 21.2335 6.37647C21.5629 6.70588 21.7276 7.10588 21.7276 7.57647V18.3059C21.7276 18.7765 21.5629 19.1765 21.2335 19.5059C20.9041 19.8353 20.5041 20 20.0335 20H5.53939ZM20.0335 18.5882C20.1119 18.5882 20.1788 18.5609 20.234 18.5064C20.2886 18.4511 20.3159 18.3843 20.3159 18.3059V7.57647C20.3159 7.49804 20.2886 7.43153 20.234 7.37694C20.1788 7.32173 20.1119 7.29412 20.0335 7.29412H5.53939C5.46096 7.29412 5.39445 7.32173 5.33986 7.37694C5.28465 7.43153 5.25704 7.49804 5.25704 7.57647V18.3059C5.25704 18.3843 5.28465 18.4511 5.33986 18.5064C5.39445 18.5609 5.46096 18.5882 5.53939 18.5882H20.0335Z" fill="white"/>
</g>
</svg>
