<svg width="25" height="25" viewBox="0 0 25 25" fill="none" xmlns="http://www.w3.org/2000/svg">
<mask id="mask0_2543_51120" style="mask-type:alpha" maskUnits="userSpaceOnUse" x="0" y="0" width="25" height="25">
<rect x="0.381714" y="0.708527" width="24" height="24" fill="#D9D9D9"/>
</mask>
<g mask="url(#mask0_2543_51120)">
<path d="M5.99704 19.2085V20.1758C5.99704 20.4643 5.89705 20.7085 5.69706 20.9085C5.49706 21.1085 5.24413 21.2085 4.93826 21.2085C4.64415 21.2085 4.39453 21.1057 4.18941 20.9C3.98428 20.6944 3.88171 20.4446 3.88171 20.1508V12.7855L5.92404 6.95856C5.99839 6.72907 6.13492 6.54671 6.33364 6.41146C6.53236 6.27619 6.75351 6.20856 6.99709 6.20856H17.8048C18.0388 6.20856 18.2512 6.27731 18.4421 6.41481C18.633 6.55231 18.7654 6.73356 18.8393 6.95856L20.8817 12.7855V20.1758C20.8817 20.4643 20.7817 20.7085 20.5817 20.9085C20.3817 21.1085 20.1287 21.2085 19.8229 21.2085C19.5287 21.2085 19.2791 21.1057 19.074 20.9C18.8689 20.6944 18.7663 20.4446 18.7663 20.1508V19.2085H5.99704ZM5.98936 11.2855H18.774L17.5125 7.70853H7.25091L5.98936 11.2855ZM7.84549 16.5547C8.20936 16.5547 8.51789 16.4273 8.77109 16.1726C9.02431 15.9179 9.15091 15.6086 9.15091 15.2447C9.15091 14.8809 9.02356 14.5723 8.76884 14.3191C8.51412 14.0659 8.20483 13.9393 7.84096 13.9393C7.4771 13.9393 7.16856 14.0667 6.91534 14.3214C6.66214 14.5761 6.53554 14.8854 6.53554 15.2493C6.53554 15.6131 6.6629 15.9217 6.91761 16.1749C7.17233 16.4281 7.48162 16.5547 7.84549 16.5547ZM16.9224 16.5547C17.2863 16.5547 17.5948 16.4273 17.848 16.1726C18.1012 15.9179 18.2278 15.6086 18.2278 15.2447C18.2278 14.8809 18.1005 14.5723 17.8458 14.3191C17.591 14.0659 17.2818 13.9393 16.9179 13.9393C16.554 13.9393 16.2455 14.0667 15.9923 14.3214C15.7391 14.5761 15.6125 14.8854 15.6125 15.2493C15.6125 15.6131 15.7398 15.9217 15.9945 16.1749C16.2493 16.4281 16.5585 16.5547 16.9224 16.5547Z" fill="white"/>
</g>
</svg>
