<svg width="42" height="42" viewBox="0 0 42 42" fill="none" xmlns="http://www.w3.org/2000/svg">
<rect width="42" height="42" rx="6" fill="#CF3C35"/>
<path d="M21 18.8881C19.6311 18.8881 18.305 19.1053 17.0644 19.5138V22.2079C17.0644 22.5469 16.8676 22.8511 16.5853 22.9901C15.7469 23.416 14.9854 23.9635 14.3095 24.5979C14.1555 24.7543 13.9416 24.8413 13.7106 24.8413C13.4711 24.8413 13.2572 24.7457 13.1032 24.5892L10.9814 22.4339C10.8274 22.2862 10.7333 22.0689 10.7333 21.8255C10.7333 21.5822 10.8274 21.3649 10.9814 21.2085C13.5908 18.6969 17.1158 17.1499 21 17.1499C24.8842 17.1499 28.4092 18.6969 31.0186 21.2085C31.1726 21.3649 31.2667 21.5822 31.2667 21.8255C31.2667 22.0689 31.1726 22.2862 31.0186 22.4426L28.8968 24.5979C28.7428 24.7543 28.5289 24.8499 28.2894 24.8499C28.0584 24.8499 27.8445 24.7543 27.6905 24.6066C27.0146 23.9635 26.2446 23.4247 25.4061 22.9988C25.1238 22.8598 24.927 22.5643 24.927 22.2166V19.5225C23.695 19.1053 22.3689 18.8881 21 18.8881Z" fill="white"/>
</svg>
