<svg width="25" height="25" viewBox="0 0 25 25" fill="none" xmlns="http://www.w3.org/2000/svg">
<mask id="mask0_2559_54053" style="mask-type:alpha" maskUnits="userSpaceOnUse" x="0" y="0" width="25" height="25">
<rect x="0.308899" y="0.540619" width="24" height="24" fill="#D9D9D9"/>
</mask>
<g mask="url(#mask0_2559_54053)">
<path d="M8.3001 19.9695C7.86655 20.2565 7.4263 20.2714 6.97936 20.0144C6.53238 19.7574 6.3089 19.3687 6.3089 18.8485V6.8887C6.3089 6.36846 6.53238 5.97982 6.97936 5.72279C7.4263 5.46576 7.86655 5.48072 8.3001 5.76768L17.7081 11.7785C18.1086 12.0386 18.3089 12.402 18.3089 12.8686C18.3089 13.3352 18.1086 13.6985 17.7081 13.9587L8.3001 19.9695ZM7.91922 18.2632L16.4353 12.8686L7.91922 7.47402V18.2632Z" fill="white"/>
</g>
</svg>
