<svg width="48" height="48" viewBox="0 0 48 48" fill="none" xmlns="http://www.w3.org/2000/svg">
<g clip-path="url(#clip0_1007_238)">
<mask id="mask0_1007_238" style="mask-type:luminance" maskUnits="userSpaceOnUse" x="0" y="0" width="48" height="48">
<path d="M48 0H0V48H48V0Z" fill="white"/>
</mask>
<g mask="url(#mask0_1007_238)">
<path opacity="0.25" d="M40 0H8C3.58172 0 0 3.58172 0 8V40C0 44.4183 3.58172 48 8 48H40C44.4183 48 48 44.4183 48 40V8C48 3.58172 44.4183 0 40 0Z" fill="white"/>
<path d="M24.3742 34C23.4935 34 22.6618 33.8523 21.879 33.557C21.0962 33.2617 20.4183 32.8446 19.8452 32.3056C19.272 31.7667 18.8212 31.1096 18.4927 30.3344C18.1642 29.5592 18 28.6918 18 27.732V18.7619C18 18.4666 18.0978 18.2156 18.2935 18.0089C18.4892 17.8021 18.7269 17.6988 19.0065 17.6988C19.286 17.6988 19.5272 17.8021 19.7298 18.0089C19.9325 18.2156 20.0339 18.4666 20.0339 18.7619V23.5681H20.7677V16.1927C20.7677 15.8974 20.8656 15.6427 21.0613 15.4286C21.257 15.2145 21.4946 15.1074 21.7742 15.1074C22.0538 15.1074 22.2949 15.2145 22.4976 15.4286C22.7003 15.6427 22.8016 15.8974 22.8016 16.1927V23.6788H23.5355V15.0631C23.5355 14.7678 23.6333 14.5168 23.829 14.3101C24.0247 14.1034 24.2624 14 24.5419 14C24.8215 14 25.0591 14.1034 25.2548 14.3101C25.4505 14.5168 25.5484 14.7678 25.5484 15.0631V23.6788H26.2823V16.9236C26.2823 16.6283 26.3801 16.3773 26.5758 16.1705C26.7715 15.9638 27.0021 15.8605 27.2677 15.8605C27.5613 15.8605 27.8059 15.9638 28.0016 16.1705C28.1973 16.3773 28.2952 16.6283 28.2952 16.9236V25.4729C27.2048 25.7386 26.3452 26.2296 25.7161 26.9457C25.0871 27.6619 24.7237 28.5736 24.6258 29.6811H25.3597C25.4435 28.7656 25.8035 27.9572 26.4395 27.2558C27.0755 26.5544 27.9527 26.1595 29.071 26.0709H29.029V22.5936C29.029 22.2983 29.1234 22.0509 29.3121 21.8516C29.5008 21.6523 29.7349 21.5526 30.0145 21.5526C30.2941 21.5526 30.5282 21.6523 30.7169 21.8516C30.9056 22.0509 31 22.2983 31 22.5936V27.732C31 28.6918 30.8218 29.5592 30.4653 30.3344C30.1089 31.1096 29.6301 31.7667 29.029 32.3056C28.428 32.8446 27.729 33.2617 26.9323 33.557C26.1355 33.8523 25.2828 34 24.3742 34Z" fill="white"/>
</g>
</g>
<defs>
<clipPath id="clip0_1007_238">
<rect width="48" height="48" fill="white"/>
</clipPath>
</defs>
</svg>
