<svg width="25" height="25" viewBox="0 0 25 25" fill="none" xmlns="http://www.w3.org/2000/svg">
<mask id="mask0_2559_54056" style="mask-type:alpha" maskUnits="userSpaceOnUse" x="0" y="0" width="25" height="25">
<rect x="0.308899" y="0.270325" width="24" height="24" fill="#D9D9D9"/>
</mask>
<g mask="url(#mask0_2559_54056)">
<path d="M9.44352 14.328C9.65633 14.328 9.83453 14.2562 9.97812 14.1127C10.1217 13.9691 10.1935 13.7909 10.1935 13.5781V12.328C10.1935 11.9806 10.315 11.6854 10.5579 11.4424C10.8009 11.1995 11.0961 11.078 11.4435 11.078H13.4435V11.6184C13.4435 11.8325 13.5355 11.9796 13.7195 12.0597C13.9035 12.1398 14.0724 12.103 14.2262 11.9491L15.5262 10.6492C15.5595 10.6159 15.6031 10.5088 15.6569 10.328C15.6569 10.3011 15.6134 10.1941 15.5262 10.0069L14.2262 8.70691C14.0724 8.55308 13.9035 8.51622 13.7195 8.59633C13.5355 8.67647 13.4435 8.82358 13.4435 9.03768V9.57806H11.4435C10.6807 9.57806 10.0317 9.84569 9.49642 10.3809C8.96117 10.9162 8.69354 11.5652 8.69354 12.328V13.5781C8.69354 13.7909 8.76533 13.9691 8.90892 14.1127C9.0525 14.2562 9.2307 14.328 9.44352 14.328ZM4.61662 18.0011C4.1179 18.0011 3.69194 17.8245 3.33874 17.4713C2.98553 17.1181 2.80892 16.6921 2.80892 16.1934V5.80883C2.80892 5.31012 2.98553 4.88416 3.33874 4.53096C3.69194 4.17776 4.1179 4.00116 4.61662 4.00116H20.0012C20.4999 4.00116 20.9258 4.17776 21.279 4.53096C21.6323 4.88416 21.8089 5.31012 21.8089 5.80883V16.1934C21.8089 16.6921 21.6323 17.1181 21.279 17.4713C20.9258 17.8245 20.4999 18.0011 20.0012 18.0011H4.61662ZM4.61662 16.5011H20.0012C20.0909 16.5011 20.1646 16.4723 20.2223 16.4146C20.28 16.3569 20.3089 16.2832 20.3089 16.1934V5.80883C20.3089 5.71908 20.28 5.64536 20.2223 5.58766C20.1646 5.52996 20.0909 5.50111 20.0012 5.50111H4.61662C4.52687 5.50111 4.45314 5.52996 4.39544 5.58766C4.33774 5.64536 4.30889 5.71908 4.30889 5.80883V16.1934C4.30889 16.2832 4.33774 16.3569 4.39544 16.4146C4.45314 16.4723 4.52687 16.5011 4.61662 16.5011ZM2.44352 20.5011C2.2307 20.5011 2.0525 20.4293 1.90892 20.2857C1.76533 20.1421 1.69354 19.9639 1.69354 19.7511C1.69354 19.5382 1.76533 19.36 1.90889 19.2165C2.05248 19.0729 2.23068 19.0011 2.44349 19.0011H22.1742C22.3871 19.0011 22.5653 19.0729 22.7088 19.2165C22.8524 19.36 22.9242 19.5382 22.9242 19.7511C22.9242 19.9639 22.8524 20.1421 22.7088 20.2857C22.5653 20.4293 22.3871 20.5011 22.1742 20.5011H2.44352Z" fill="white"/>
</g>
</svg>
