<svg width="25" height="25" viewBox="0 0 25 25" fill="none" xmlns="http://www.w3.org/2000/svg">
<mask id="mask0_2559_54062" style="mask-type:alpha" maskUnits="userSpaceOnUse" x="0" y="0" width="25" height="25">
<rect x="0.308899" y="0.919342" width="24" height="24" fill="#D9D9D9"/>
</mask>
<g mask="url(#mask0_2559_54062)">
<path d="M9.30887 18.6693H15.3089C15.5214 18.6693 15.6995 18.5974 15.8432 18.4536C15.987 18.3098 16.0588 18.1316 16.0588 17.919C16.0588 17.7064 15.987 17.5283 15.8432 17.3847C15.6995 17.2412 15.5214 17.1694 15.3089 17.1694H9.30887C9.09637 17.1694 8.91826 17.2413 8.77452 17.3851C8.63077 17.5289 8.5589 17.7071 8.5589 17.9197C8.5589 18.1323 8.63077 18.3104 8.77452 18.4539C8.91826 18.5975 9.09637 18.6693 9.30887 18.6693ZM9.30887 14.6693H15.3089C15.5214 14.6693 15.6995 14.5974 15.8432 14.4536C15.987 14.3098 16.0588 14.1316 16.0588 13.919C16.0588 13.7064 15.987 13.5283 15.8432 13.3847C15.6995 13.2412 15.5214 13.1694 15.3089 13.1694H9.30887C9.09637 13.1694 8.91826 13.2413 8.77452 13.3851C8.63077 13.5289 8.5589 13.7071 8.5589 13.9197C8.5589 14.1323 8.63077 14.3104 8.77452 14.4539C8.91826 14.5975 9.09637 14.6693 9.30887 14.6693ZM6.6166 22.4193C6.11147 22.4193 5.6839 22.2443 5.3339 21.8943C4.9839 21.5443 4.8089 21.1168 4.8089 20.6116V5.22707C4.8089 4.72194 4.9839 4.29437 5.3339 3.94437C5.6839 3.59437 6.11147 3.41937 6.6166 3.41937H13.8108C14.0547 3.41937 14.2871 3.46617 14.5081 3.55977C14.7291 3.65336 14.9217 3.7822 15.0858 3.9463L19.2819 8.1424C19.446 8.30651 19.5749 8.49907 19.6684 8.72007C19.762 8.94109 19.8089 9.17353 19.8089 9.4174V20.6116C19.8089 21.1168 19.6339 21.5443 19.2839 21.8943C18.9339 22.2443 18.5063 22.4193 18.0011 22.4193H6.6166ZM13.8089 8.51932V4.91935H6.6166C6.53967 4.91935 6.46914 4.9514 6.40502 5.0155C6.34092 5.07961 6.30887 5.15014 6.30887 5.22707V20.6116C6.30887 20.6886 6.34092 20.7591 6.40502 20.8232C6.46914 20.8873 6.53967 20.9193 6.6166 20.9193H18.0011C18.0781 20.9193 18.1486 20.8873 18.2127 20.8232C18.2768 20.7591 18.3089 20.6886 18.3089 20.6116V9.41932H14.7087C14.4537 9.41932 14.24 9.33307 14.0676 9.16057C13.8951 8.98807 13.8089 8.77432 13.8089 8.51932Z" fill="white"/>
</g>
</svg>
