<svg width="25" height="24" viewBox="0 0 25 24" fill="none" xmlns="http://www.w3.org/2000/svg">
<mask id="mask0_2559_54059" style="mask-type:alpha" maskUnits="userSpaceOnUse" x="0" y="0" width="25" height="25">
<rect x="0.308899" y="0.000335693" width="24" height="24" fill="#D9D9D9"/>
</mask>
<g mask="url(#mask0_2559_54059)">
<path d="M5.30887 11.0003C4.89991 11.0003 4.54767 10.8526 4.25217 10.5571C3.95666 10.2616 3.8089 9.90933 3.8089 9.50037V5.00034C3.8089 4.59137 3.95666 4.23914 4.25217 3.94364C4.54767 3.64812 4.89991 3.50037 5.30887 3.50037H9.8089C10.2179 3.50037 10.5701 3.64812 10.8656 3.94364C11.1611 4.23914 11.3089 4.59137 11.3089 5.00034V9.50037C11.3089 9.90933 11.1611 10.2616 10.8656 10.5571C10.5701 10.8526 10.2179 11.0003 9.8089 11.0003H5.30887ZM5.30887 20.5003C4.89991 20.5003 4.54767 20.3526 4.25217 20.057C3.95666 19.7615 3.8089 19.4093 3.8089 19.0003V14.5003C3.8089 14.0914 3.95666 13.7391 4.25217 13.4436C4.54767 13.1481 4.89991 13.0003 5.30887 13.0003H9.8089C10.2179 13.0003 10.5701 13.1481 10.8656 13.4436C11.1611 13.7391 11.3089 14.0914 11.3089 14.5003V19.0003C11.3089 19.4093 11.1611 19.7615 10.8656 20.057C10.5701 20.3526 10.2179 20.5003 9.8089 20.5003H5.30887ZM14.8089 11.0003C14.3999 11.0003 14.0476 10.8526 13.7521 10.5571C13.4566 10.2616 13.3089 9.90933 13.3089 9.50037V5.00034C13.3089 4.59137 13.4566 4.23914 13.7521 3.94364C14.0476 3.64812 14.3999 3.50037 14.8089 3.50037H19.3089C19.7178 3.50037 20.0701 3.64812 20.3656 3.94364C20.6611 4.23914 20.8089 4.59137 20.8089 5.00034V9.50037C20.8089 9.90933 20.6611 10.2616 20.3656 10.5571C20.0701 10.8526 19.7178 11.0003 19.3089 11.0003H14.8089ZM14.8089 20.5003C14.3999 20.5003 14.0476 20.3526 13.7521 20.057C13.4566 19.7615 13.3089 19.4093 13.3089 19.0003V14.5003C13.3089 14.0914 13.4566 13.7391 13.7521 13.4436C14.0476 13.1481 14.3999 13.0003 14.8089 13.0003H19.3089C19.7178 13.0003 20.0701 13.1481 20.3656 13.4436C20.6611 13.7391 20.8089 14.0914 20.8089 14.5003V19.0003C20.8089 19.4093 20.6611 19.7615 20.3656 20.057C20.0701 20.3526 19.7178 20.5003 19.3089 20.5003H14.8089ZM5.30887 9.50037H9.8089V5.00034H5.30887V9.50037ZM14.8089 9.50037H19.3089V5.00034H14.8089V9.50037ZM14.8089 19.0003H19.3089V14.5003H14.8089V19.0003ZM5.30887 19.0003H9.8089V14.5003H5.30887V19.0003Z" fill="white"/>
</g>
</svg>
