<svg xmlns="http://www.w3.org/2000/svg" xmlns:xlink="http://www.w3.org/1999/xlink" width="48" height="48" viewBox="0 0 48 48">
  <defs>
    <clipPath id="clip-path">
      <path id="Path_996" data-name="Path 996" d="M53.325-251.961,52-250.637l6.244,6.244v.748a3.111,3.111,0,0,0,3.107,3.118,3.2,3.2,0,0,0,.675-.078l1.725,1.725a5.721,5.721,0,0,1-2.4.535,5.391,5.391,0,0,1-5.507-5.3H54.078a7.248,7.248,0,0,0,6.233,6.983v3.4H62.39v-3.408a7.38,7.38,0,0,0,2.639-.94l4.347,4.348,1.325-1.32Zm11.127,8.483c0-.057.015-.114.015-.172v-6.234A3.115,3.115,0,0,0,61.351-253a3.115,3.115,0,0,0-3.117,3.116v.192Zm4.172-.172H66.857a5.113,5.113,0,0,1-.452,2.13l1.278,1.278a6.722,6.722,0,0,0,.94-3.408Z" fill="#fff" clip-rule="evenodd"/>
    </clipPath>
    <clipPath id="clip-Artboard_15">
      <rect width="48" height="48"/>
    </clipPath>
  </defs>
  <g id="Artboard_15" data-name="Artboard – 15" clip-path="url(#clip-Artboard_15)">
    <rect id="Rectangle_506" data-name="Rectangle 506" width="48" height="48" rx="8" fill="#ee4136"/>
    <g id="Group_1966" data-name="Group 1966" transform="translate(-37.351 267.13)" clip-path="url(#clip-path)">
      <path id="Path_995" data-name="Path 995" d="M51-254H71.347v21.385H51Z" transform="translate(0.177 0.177)" fill="#fff"/>
    </g>
  </g>
</svg>
