<svg width="25" height="24" viewBox="0 0 25 24" fill="none" xmlns="http://www.w3.org/2000/svg">
<mask id="mask0_2398_59224" style="mask-type:alpha" maskUnits="userSpaceOnUse" x="0" y="0" width="25" height="24">
<rect x="0.786453" width="24" height="24" fill="#D9D9D9"/>
</mask>
<g mask="url(#mask0_2398_59224)">
<path fill-rule="evenodd" clip-rule="evenodd" d="M9.08427 9.78319C9.80442 10.5125 10.6739 10.8771 11.6926 10.8771C12.7113 10.8771 13.5808 10.5125 14.3009 9.78319C15.0211 9.05461 15.3812 8.18973 15.3812 7.18855C15.3812 6.16981 15.0211 5.30037 14.3009 4.58022C13.5808 3.86007 12.7113 3.5 11.6926 3.5C10.6739 3.5 9.80442 3.86007 9.08427 4.58022C8.36412 5.30037 8.00405 6.16981 8.00405 7.18855C8.00405 8.18973 8.36412 9.05461 9.08427 9.78319ZM14.2748 18.8865C13.9123 18.4273 13.6434 17.8907 13.4967 17.3057H5.36937V16.5417C5.36937 16.3309 5.43084 16.1377 5.5538 15.962C5.67675 15.7864 5.84361 15.6371 6.05439 15.5141C6.96774 15.075 7.8941 14.7367 8.83345 14.4993C9.7735 14.2625 10.7266 14.1441 11.6926 14.1441C12.4154 14.1441 13.1309 14.2104 13.8392 14.3429C14.1169 13.806 14.5067 13.3364 14.9776 12.9651C14.9498 12.9582 14.922 12.9515 14.8943 12.9448C13.8313 12.6905 12.764 12.5633 11.6926 12.5633C10.6212 12.5633 9.5543 12.6905 8.49199 12.9448C7.42899 13.1998 6.37933 13.582 5.34302 14.0914C4.86878 14.3373 4.49114 14.6798 4.21011 15.1189C3.92908 15.5581 3.78856 16.0323 3.78856 16.5417V17.3057C3.78856 17.7448 3.94242 18.1183 4.25016 18.426C4.55718 18.733 4.93904 18.8865 5.39571 18.8865H14.2748ZM13.1817 8.67662C12.7686 9.08974 12.2722 9.2963 11.6926 9.2963C11.113 9.2963 10.617 9.08974 10.2045 8.67662C9.79142 8.26421 9.58486 7.76818 9.58486 7.18855C9.58486 6.60892 9.79142 6.11255 10.2045 5.69943C10.617 5.28702 11.113 5.08081 11.6926 5.08081C12.2722 5.08081 12.7686 5.28702 13.1817 5.69943C13.5941 6.11255 13.8003 6.60892 13.8003 7.18855C13.8003 7.76818 13.5941 8.26421 13.1817 8.67662Z" fill="white"/>
<path d="M17.5689 18.3923C17.6883 18.3923 17.7885 18.3519 17.8694 18.2709C17.9501 18.1903 17.9904 18.0902 17.9904 17.9708V16.7061H19.2656C19.385 16.7061 19.4834 16.6657 19.5607 16.5847C19.638 16.5041 19.6766 16.404 19.6766 16.2846C19.6766 16.1651 19.6361 16.065 19.5552 15.984C19.4745 15.9034 19.3745 15.863 19.2551 15.863H17.9904V14.5878C17.9904 14.4684 17.9501 14.37 17.8694 14.2928C17.7885 14.2155 17.6883 14.1768 17.5689 14.1768C17.4494 14.1768 17.3494 14.2172 17.2687 14.2978C17.1878 14.3788 17.1473 14.4789 17.1473 14.5984V15.863H15.8721C15.7527 15.863 15.6543 15.9034 15.577 15.984C15.4998 16.065 15.4611 16.1651 15.4611 16.2846C15.4611 16.404 15.5014 16.5041 15.5821 16.5847C15.663 16.6657 15.7632 16.7061 15.8827 16.7061H17.1473V17.9813C17.1473 18.1008 17.1878 18.1991 17.2687 18.2764C17.3494 18.3537 17.4494 18.3923 17.5689 18.3923ZM17.5689 20.5001C16.9857 20.5001 16.4377 20.3893 15.9248 20.1679C15.4119 19.9467 14.9658 19.6464 14.5864 19.267C14.207 18.8876 13.9067 18.4415 13.6855 17.9286C13.4641 17.4157 13.3534 16.8677 13.3534 16.2846C13.3534 15.7014 13.4641 15.1534 13.6855 14.6405C13.9067 14.1277 14.207 13.6815 14.5864 13.3021C14.9658 12.9227 15.4119 12.6223 15.9248 12.4009C16.4377 12.1797 16.9857 12.0691 17.5689 12.0691C18.152 12.0691 18.7 12.1797 19.2129 12.4009C19.7258 12.6223 20.1719 12.9227 20.5513 13.3021C20.9307 13.6815 21.231 14.1277 21.4522 14.6405C21.6736 15.1534 21.7843 15.7014 21.7843 16.2846C21.7843 16.8677 21.6736 17.4157 21.4522 17.9286C21.231 18.4415 20.9307 18.8876 20.5513 19.267C20.1719 19.6464 19.7258 19.9467 19.2129 20.1679C18.7 20.3893 18.152 20.5001 17.5689 20.5001Z" fill="white"/>
</g>
</svg>
