<svg xmlns="http://www.w3.org/2000/svg" xmlns:xlink="http://www.w3.org/1999/xlink" width="48" height="48" viewBox="0 0 48 48">
  <defs>
    <clipPath id="clip-Artboard_24">
      <rect width="48" height="48"/>
    </clipPath>
  </defs>
  <g id="Artboard_24" data-name="Artboard – 24" clip-path="url(#clip-Artboard_24)">
    <rect id="Rectangle_2" data-name="Rectangle 2" width="48" height="48" rx="8" fill="#ee4136" opacity="0.971"/>
    <g id="Group_1974" data-name="Group 1974" transform="translate(4.712 4.208)">
      <path id="Path_1000" data-name="Path 1000" d="M21.242,4.954l-4.471,4.4V5.5a1.114,1.114,0,0,0-1.119-1.1H8.744l12.5,12.31V4.954ZM1.418,0,0,1.4,3.053,4.4H2.236A1.114,1.114,0,0,0,1.117,5.5V16.516a1.114,1.114,0,0,0,1.119,1.1H15.652a1.1,1.1,0,0,0,.6-.2l3.568,3.5,1.418-1.4L1.421,0Z" transform="translate(8.667 9.333)" fill="#fff"/>
    </g>
  </g>
</svg>
