<svg width="25" height="25" viewBox="0 0 25 25" fill="none" xmlns="http://www.w3.org/2000/svg">
<mask id="mask0_2543_51166" style="mask-type:alpha" maskUnits="userSpaceOnUse" x="0" y="0" width="25" height="25">
<rect x="0.381714" y="0.708527" width="24" height="24" fill="#D9D9D9"/>
</mask>
<g mask="url(#mask0_2543_51166)">
<path d="M11.8836 15.8446C12.8181 15.8446 13.6119 15.5175 14.2648 14.8633C14.9178 14.2091 15.2443 13.4147 15.2443 12.4801C15.2443 11.5456 14.9172 10.7518 14.263 10.0989C13.6088 9.44591 12.8144 9.11943 11.8798 9.11943C10.9453 9.11943 10.1515 9.44653 9.49858 10.1007C8.84563 10.7549 8.51915 11.5493 8.51915 12.4839C8.51915 13.4184 8.84625 14.2122 9.50044 14.8651C10.1546 15.5181 10.949 15.8446 11.8836 15.8446ZM11.8817 14.7089C11.2631 14.7089 10.7373 14.4924 10.3043 14.0594C9.8713 13.6264 9.6548 13.1006 9.6548 12.482C9.6548 11.8634 9.8713 11.3376 10.3043 10.9046C10.7373 10.4716 11.2631 10.2551 11.8817 10.2551C12.5003 10.2551 13.0261 10.4716 13.4591 10.9046C13.8921 11.3376 14.1086 11.8634 14.1086 12.482C14.1086 13.1006 13.8921 13.6264 13.4591 14.0594C13.0261 14.4924 12.5003 14.7089 11.8817 14.7089ZM11.8817 18.2555C10.0767 18.2555 8.42213 17.7807 6.91796 16.8311C5.4138 15.8816 4.26677 14.5979 3.47687 12.98C3.44093 12.9166 3.41608 12.8411 3.40233 12.7535C3.38859 12.6659 3.38171 12.5754 3.38171 12.482C3.38171 12.3886 3.38859 12.2981 3.40233 12.2105C3.41608 12.1229 3.44093 12.0474 3.47687 11.984C4.26677 10.3661 5.4138 9.08243 6.91796 8.13287C8.42213 7.18331 10.0767 6.70853 11.8817 6.70853C13.6867 6.70853 15.3413 7.18331 16.8455 8.13287C18.3496 9.08243 19.4967 10.3661 20.2866 11.984C20.3225 12.0474 20.3473 12.1229 20.3611 12.2105C20.3748 12.2981 20.3817 12.3886 20.3817 12.482C20.3817 12.5754 20.3748 12.6659 20.3611 12.7535C20.3473 12.8411 20.3225 12.9166 20.2866 12.98C19.4967 14.5979 18.3496 15.8816 16.8455 16.8311C15.3413 17.7807 13.6867 18.2555 11.8817 18.2555ZM11.8817 17.0183C13.4351 17.0183 14.8612 16.6094 16.1603 15.7914C17.4593 14.9735 18.4525 13.8704 19.1398 12.482C18.4525 11.0936 17.4593 9.99046 16.1603 9.17255C14.8612 8.35464 13.4351 7.94568 11.8817 7.94568C10.3284 7.94568 8.90218 8.35464 7.60315 9.17255C6.30411 9.99046 5.31093 11.0936 4.62361 12.482C5.31093 13.8704 6.30411 14.9735 7.60315 15.7914C8.90218 16.6094 10.3284 17.0183 11.8817 17.0183Z" fill="white"/>
</g>
</svg>
