<svg width="25" height="24" viewBox="0 0 25 24" fill="none" xmlns="http://www.w3.org/2000/svg">
<mask id="mask0_2398_59296" style="mask-type:alpha" maskUnits="userSpaceOnUse" x="0" y="0" width="25" height="24">
<rect x="0.786453" width="24" height="24" fill="#D9D9D9"/>
</mask>
<g mask="url(#mask0_2398_59296)">
<path d="M15.8365 19.775C15.5865 19.875 15.3575 19.8416 15.1495 19.675C14.9408 19.5083 14.8365 19.2833 14.8365 19C14.8365 18.8666 14.8741 18.75 14.9495 18.65C15.0241 18.55 15.1281 18.4666 15.2615 18.4C16.5781 17.8666 17.6365 17.021 18.4365 15.863C19.2365 14.7043 19.6365 13.4083 19.6365 11.975C19.6365 10.5416 19.2365 9.24563 18.4365 8.08696C17.6365 6.92896 16.5781 6.08329 15.2615 5.54996C15.1115 5.48329 15.0031 5.39563 14.9365 5.28696C14.8698 5.17896 14.8365 5.05829 14.8365 4.92496C14.8365 4.64163 14.9408 4.42063 15.1495 4.26196C15.3575 4.10396 15.5865 4.07496 15.8365 4.17496C17.4365 4.84163 18.7198 5.87496 19.6865 7.27496C20.6531 8.67496 21.1365 10.2416 21.1365 11.975C21.1365 13.7083 20.6531 15.275 19.6865 16.675C18.7198 18.075 17.4365 19.1083 15.8365 19.775ZM5.33645 14.5C5.08645 14.5 4.87412 14.4126 4.69945 14.238C4.52412 14.0626 4.43645 13.85 4.43645 13.6V10.4C4.43645 10.15 4.52412 9.93729 4.69945 9.76196C4.87412 9.58729 5.08645 9.49996 5.33645 9.49996H8.16145L10.9115 6.74996C11.1948 6.46663 11.5198 6.40396 11.8865 6.56196C12.2531 6.72063 12.4365 6.99996 12.4365 7.39996V16.6C12.4365 17 12.2531 17.2793 11.8865 17.438C11.5198 17.596 11.1948 17.5333 10.9115 17.25L8.16145 14.5H5.33645ZM14.8365 15.65V8.29996C15.4698 8.64996 15.9781 9.15829 16.3615 9.82496C16.7448 10.4916 16.9365 11.2166 16.9365 12C16.9365 12.7833 16.7448 13.5 16.3615 14.15C15.9781 14.8 15.4698 15.3 14.8365 15.65ZM10.9365 8.84996L8.78645 11H5.93645V13H8.78645L10.9365 15.15V8.84996Z" fill="white"/>
</g>
</svg>
